<?xml version="1.0" encoding="utf-8"?>
<!-- Generator: Adobe Illustrator 18.1.1, SVG Export Plug-In . SVG Version: 6.00 Build 0)  -->
<svg version="1.1" id="Layer_1" xmlns="http://www.w3.org/2000/svg"  x="0px" y="0px"
	 viewBox="72.4 -30 467.2 854.8" enable-background="new 72.4 -30 467.2 854.8" xml:space="preserve">
<path d="M468.4,505.8H140.8c-5.7,0-11.4,2.8-14.2,8.5c-2.8,5.7-2.8,11.4,0,17.1l165.2,284.9c2.8,5.7,8.5,8.5,14.2,8.5
	s11.4-2.8,14.2-8.5l165.2-284.9c2.8-5.7,2.8-11.4,0-17.1C479.8,508.6,474.1,505.8,468.4,505.8z"/>
<path d="M140.8,286.2h327.6l0,0c8.5,0,17.1-8.5,17.1-17.1c0-2.8,0-5.7-2.8-8.5l-162.4-282c-2.8-5.7-8.5-8.5-14.2-8.5
	c-5.7,0-11.4,2.8-14.2,8.5L126.5,263.4c-2.8,5.7-2.8,11.4,0,17.1C129.4,283.4,135.1,286.2,140.8,286.2z"/>
<g>
	<path d="M522.5,413.1h-433c-8.5,0-17.1-8.5-17.1-17.1c0-8.5,8.5-17.1,17.1-17.1h433c8.5,0,17.1,8.5,17.1,17.1
		C539.6,404.5,531.1,413.1,522.5,413.1z"/>
</g>
</svg>
