<?xml version="1.0" encoding="UTF-8"?>
<svg enable-background="new 0 0 512 512" version="1.1" viewBox="0 0 512 512" xml:space="preserve" xmlns="http://www.w3.org/2000/svg">
<style type="text/css">.st0{fill:none}.st1{fill:#42293B}.st2{display:none;fill:#43293C}.st3{fill:#43293C}</style>
<path class="st0" d="m356.8 120.7c-16.6-16.6-36.4-29.8-59.3-39.6-23-9.8-47-14.7-72.3-14.7s-49.3 4.9-72.3 14.7-42.7 23-59.3 39.6-29.8 36.4-39.6 59.4-14.7 47-14.7 72.3c0 25.2 4.9 49.3 14.7 72.3s23 42.7 39.6 59.3 36.4 29.8 59.3 39.6c23 9.8 47 14.7 72.3 14.7s49.3-4.9 72.3-14.7 42.7-23 59.3-39.6 29.8-36.4 39.6-59.3c9.8-23 14.7-47 14.7-72.3 0-25.2-4.9-49.3-14.7-72.3s-23-42.8-39.6-59.4zm-271 220.7c-16.9-26.9-25.3-56.6-25.3-89 0-24.7 4.5-46.9 13.4-66.8l79 216.7c-27.9-13.7-50.3-34-67.1-60.9zm139.4 75.7c-14.2 0-28.4-2.1-42.6-6.2l45.3-131.7 47.4 129.2c-16.2 5.8-32.8 8.7-50.1 8.7zm26.3-234.9c2.9-0.1 5.7-0.5 8.3-1s4.5-1.1 5.6-1.7l1.7-0.6c2.8-0.3 4.7-2.3 5.7-6.1s0.9-7.5-0.5-11.1-3.4-5.3-6.2-5.2c-17.9 1.5-32.7 2.3-44.2 2.3-4.8 0-10.9-0.2-18.1-0.6s-13.3-0.8-18.1-1l-7.4-0.6c-2.8-0.1-4.8 1.6-6.2 5.3s-1.6 7.4-0.5 11.2c1 3.8 2.9 5.8 5.7 5.9l17.4 1.7 23.2 62.9-33.8 108.4-63.1-169.8 21.7-1.7c2.8-0.3 4.6-2.2 5.6-5.7s0.8-6.9-0.5-10.1-3.4-4.8-6.3-4.7c-17.8 1.4-32.5 2.1-44 2.1-4.5 0-8.1-0.1-10.8-0.2 15.2-22.9 34.9-41 59.3-54.4s50.8-20.1 79.2-20.1c21.2 0 41.5 3.8 60.7 11.4s36.3 18.2 51.2 31.8c-7.2-1-14 1.1-20.4 6.3s-9.6 12.9-9.6 23.1c0 4 0.8 8.2 2.4 12.7s3.1 8.1 4.7 10.9c1.5 2.8 4.1 7 7.7 12.6 0.7 1.1 1.2 2 1.7 2.7 6.9 12 10.3 27.2 10.3 45.7 0 8.3-2.2 20.1-6.5 35.6-4.3 15.4-8.7 28.8-13.1 40.1l-6.6 17-56.2-155.1zm116.5 153.9c-14.7 25.6-34.5 45.8-59.4 60.4l54-144.1c0.4-1 0.9-2.3 1.4-4s1.6-5.4 3.1-11.1 2.6-11.3 3.2-17 1.2-12.9 1.7-21.7 0-17.2-1.3-25c13 23.4 19.4 49.7 19.4 78.8-0.1 30.1-7.4 58-22.1 83.7z"/>
<path class="st1" d="m327.3 280.2c4.3-15.4 6.5-27.3 6.5-35.6 0-18.5-3.4-33.7-10.3-45.7-0.4-0.7-1-1.6-1.7-2.7-3.6-5.7-6.1-9.9-7.7-12.6-1.5-2.8-3.1-6.4-4.7-10.9s-2.4-8.7-2.4-12.7c0-10.2 3.2-17.9 9.6-23.1s13.2-7.3 20.4-6.3c-14.9-13.6-31.9-24.3-51.2-31.8-19.2-7.6-39.5-11.4-60.7-11.4-28.4 0-54.8 6.7-79.2 20.1s-44.2 31.5-59.3 54.4c2.6 0.1 6.2 0.2 10.8 0.2 11.6 0 26.3-0.7 44-2.1 2.9-0.1 5 1.4 6.3 4.7 1.3 3.2 1.5 6.6 0.5 10.1s-2.8 5.4-5.6 5.7l-21.7 1.7 63.2 169.8 33.5-108.6-23.2-62.9-17.4-1.7c-2.8-0.1-4.7-2.1-5.7-5.9s-0.9-7.5 0.5-11.2 3.4-5.4 6.2-5.3l7.4 0.6c4.8 0.3 10.9 0.6 18.1 1s13.3 0.6 18.1 0.6c11.6 0 26.3-0.8 44.2-2.3 2.8-0.1 4.8 1.6 6.2 5.2s1.6 7.3 0.5 11.1c-1 3.8-2.9 5.8-5.7 6.1l-1.7 0.6c-1.1 0.6-3 1.1-5.6 1.7s-5.4 0.9-8.3 1l56 155.1 6.6-17c4.8-11 9.1-24.4 13.5-39.9z"/>
<path class="st1" d="m60.4 252.3c0 32.4 8.4 62.1 25.3 89 16.9 27 39.3 47.2 67.1 60.9l-79-216.7c-8.9 19.9-13.4 42.2-13.4 66.8z"/>
<path class="st2" d="m248 483.1c-5.7 0-10.4-4.7-10.4-10.4v-54.9c0-0.7-0.6-1.3-1.3-1.3h-46.3c-5.7 0-10.4-4.7-10.4-10.4v-11.4c0-5.7 4.7-10.4 10.4-10.4h46.3c0.7 0 1.3-0.6 1.3-1.3v-49.6c0-5.7 4.7-10.4 10.4-10.4h12c5.7 0 10.4 4.7 10.4 10.4v49.6c0 0.7 0.6 1.3 1.3 1.3h46.3c5.7 0 10.4 4.7 10.4 10.4v11.4c0 5.7-4.7 10.4-10.4 10.4h-46.3c-0.7 0-1.3 0.6-1.3 1.3v54.9c0 5.7-4.7 10.4-10.4 10.4h-12z"/>
<path class="st3" d="m416.6 480.4c-3 0-5.5-2.4-5.5-5.5v-57.2c0-2.2-1.8-3.9-3.9-3.9h-51.6c-3 0-5.5-2.4-5.5-5.5v-17.3c0-3 2.4-5.5 5.5-5.5h51.6c2.2 0 3.9-1.8 3.9-3.9v-55.9c0-3 2.4-5.5 5.5-5.5h18.9c3 0 5.5 2.4 5.5 5.5v55.9c0 2.2 1.8 3.9 3.9 3.9h48.6c3 0 5.5 2.4 5.5 5.5v17.3c0 3-2.4 5.5-5.5 5.5h-48.6c-2.2 0-3.9 1.8-3.9 3.9v57.3c0 3-2.4 5.5-5.5 5.5h-18.9z"/>
<path class="st1" d="m370.6 173.6c1.4 7.9 1.8 16.2 1.3 25s-1 16.1-1.7 21.7c-0.6 5.7-1.7 11.3-3.2 17s-2.6 9.3-3.1 11.1c-0.6 1.7-1 3.1-1.4 4l-46.9 125.2h8.4c2.9 0 5.7 0.8 8.1 2.1 14.2-12.1 26.2-26.7 35.9-43.6 14.7-25.6 22-53.6 22-83.7 0-29.1-6.5-55.4-19.4-78.8z"/>
<path class="st1" d="m231 377.6v-50.7c0-6.4 3.7-11.9 9-14.6l-12.1-33-33.8 98.3h36.9z"/>
<path class="st1" d="m421.6 187.1c-7-21-16.8-40-29.6-57s-27.6-31.8-44.6-44.6c-17-12.7-35.9-22.6-57-29.6-21-7-42.8-10.4-65.2-10.4-22.4 0.1-44.2 3.5-65.2 10.5s-40 16.8-57 29.6-31.8 27.6-44.6 44.6-22.6 35.9-29.6 57c-7 21-10.4 42.8-10.4 65.2 0 22.5 3.5 44.2 10.4 65.2 7 21 16.8 40 29.6 57 12.7 17 27.6 31.8 44.6 44.6s35.9 22.6 57 29.6c21 7 42.8 10.4 65.2 10.4 1.9 0 3.9 0 5.8-0.1v-20.9c-1.9 0.1-3.9 0.1-5.8 0.1-25.2 0-49.3-4.9-72.3-14.7s-42.7-23-59.3-39.6c-16.6-16.7-29.8-36.4-39.6-59.4s-14.7-47-14.7-72.3c0-25.2 4.9-49.3 14.7-72.3s23-42.7 39.6-59.3 36.4-29.8 59.3-39.6c23-9.8 47-14.7 72.3-14.7s49.3 4.9 72.3 14.7 42.7 23 59.3 39.6 29.8 36.4 39.6 59.3c9.8 23 14.7 47 14.7 72.3 0 25.2-4.9 49.3-14.7 72.3-8.6 20.1-19.7 37.7-33.5 52.9h26.7l2.4-3c3.8-5.1 7.3-10.3 10.6-15.7v-32c0-9 7.4-16.4 16.4-16.4h4.8c5.5-18.8 8.2-38.2 8.2-58.1 0-22.4-3.5-44.2-10.4-65.2z"/>
<path class="st1" d="m339.8 410.9c-2 6.8-8.3 11.9-15.7 11.9h-24.9c-0.6 0.2-1.1 0.5-1.7 0.7-6.8 2.9-13.6 5.3-20.5 7.4v21.7c4.5-1.2 9-2.5 13.5-4 20.6-6.8 39.2-16.4 55.8-28.7-3.1-2.1-5.5-5.3-6.5-9z"/>
<path class="st3" d="m246.1 480.4c-3 0-5.5-2.4-5.5-5.5v-57.2c0-2.2-1.8-3.9-3.9-3.9h-51.6c-3 0-5.5-2.4-5.5-5.5v-17.3c0-3 2.4-5.5 5.5-5.5h51.6c2.2 0 3.9-1.8 3.9-3.9v-55.9c0-3 2.4-5.5 5.5-5.5h18.9c3 0 5.5 2.4 5.5 5.5v55.9c0 2.2 1.8 3.9 3.9 3.9h48.6c3 0 5.5 2.4 5.5 5.5v17.3c0 3-2.4 5.5-5.5 5.5h-48.6c-2.2 0-3.9 1.8-3.9 3.9v57.3c0 3-2.4 5.5-5.5 5.5h-18.9z"/>
</svg>
